#!OML:ASF H:\charlestonDancing\Project 1\Capture day 1\Session 1\femaleDancer.ASF
:FULLY-SPECIFIED
:DEGREES
137
root -1.64626 17.3886 5.87367 530.616 -69.9753 -514.149
lowerback 18.3223 3.08515 10.2783
upperback 4.61191 5.56796 0.490274
thorax -4.25289 2.52443 -6.42055
lowerneck 9.55528 14.2005 13.8031
upperneck -5.56479 19.7837 -19.7247
head 0.249591 10.4471 -8.11593
rclavicle -1.19271e-015 1.8487e-014
rhumerus -58.9852 -22.8224 -33.7925
rradius 92.1497
rwrist -57.2235
rhand -5.76773 -27.6482
rfingers 7.12502
rthumb 20.0556 -56.6331
lclavicle -1.19271e-015 1.8487e-014
lhumerus -89.8371 15.2084 -9.19132
lradius 12.6541
lwrist -59.8796
lhand -16.5036 12.5541
lfingers 7.12502
lthumb 9.7143 42.3101
rfemur -4.38388 18.6436 15.8514
rtibia 26.8068
rfoot -23.8867 -9.01226
rtoes -19.0907
lfemur -39.4845 1.01047 -17.9179
ltibia 48.4254
lfoot -21.1259 4.09555
ltoes -9.27018
138
root -1.59312 17.427 5.82975 533.356 -69.6584 -517.428
lowerback 18.9237 3.27197 8.93107
upperback 4.69562 5.59373 0.139704
thorax -4.58242 2.52699 -6.09916
lowerneck 9.71353 14.2045 13.7352
upperneck -5.65274 19.7812 -19.7704
head 0.196563 10.4574 -8.13994
rclavicle 1.0953e-013 -2.34566e-014
rhumerus -58.7049 -23.1585 -34.565
rradius 92.3533
rwrist -56.7154
rhand -5.87822 -27.6266
rfingers 7.12502
rthumb 19.9494 -56.6226
lclavicle 1.0953e-013 -2.34566e-014
lhumerus -88.7713 16.3189 -8.08122
lradius 12.5178
lwrist -59.773
lhand -17.3525 12.8142
lfingers 7.12502
lthumb 8.89519 42.6067
rfemur -5.22679 17.9056 15.1762
rtibia 26.6142
rfoot -24.0165 -7.90862
rtoes -20.4637
lfemur -38.7676 1.52886 -18.8507
ltibia 47.6502
lfoot -20.6984 4.06052
ltoes -8.99394
139
root -1.53746 17.4729 5.78286 534.443 -69.1716 -518.546
lowerback 19.2381 3.31574 8.24148
upperback 4.64524 5.54343 0.00147039
thorax -4.86972 2.48976 -5.88286
lowerneck 9.71725 14.372 13.4364
upperneck -5.57172 19.9774 -19.6418
head 0.207282 10.5545 -8.04333
rclavicle 1.80894e-014 9.93923e-016
rhumerus -57.5581 -23.6028 -35.95
rradius 92.0721
rwrist -55.8426
rhand -6.39429 -27.7344
rfingers 7.12502
rthumb 19.4533 -56.7813
lclavicle 1.80894e-014 9.93923e-016
lhumerus -86.9979 17.4134 -3.20595
lradius 12.7186
lwrist -55.9846
lhand -18.7485 12.0003
lfingers 7.12502
lthumb 7.54794 41.8456
rfemur -7.13616 16.7597 15.3739
rtibia 27.6847
rfoot -24.2327 -6.3966
rtoes -20.9234
lfemur -38.4129 1.86158 -18.8689
ltibia 46.7065
lfoot -20.1272 4.30044
ltoes -8.86
140
root -1.48143 17.541 5.73939 534.129 -68.663 -517.905
lowerback 18.3532 3.26455 8.49688
upperback 5.19345 5.37734 -0.0878479
thorax -3.79676 2.47246 -5.98551
lowerneck 9.38133 14.5868 13.1876
upperneck -5.91934 20.1697 -19.9332
head 0.201226 10.6591 -8.0642
rclavicle -2.5345e-014 1.42131e-014
rhumerus -55.752 -24.7532 -37.8061
rradius 91.895
rwrist -55.0518
rhand -6.86608 -27.7868
rfingers 7.12502
rthumb 18.9996 -56.8789
lclavicle -2.5345e-014 1.42131e-014
lhumerus -84.412 19.5235 3.44309
lradius 13.2282
lwrist -50.6599
lhand -19.7995 12.5214
lfingers 7.12502
lthumb 6.53338 42.4006
rfemur -9.63802 15.4329 16.3925
rtibia 29.2914
rfoot -24.3156 -4.89421
rtoes -21.4339
lfemur -38.254 2.02534 -18.1477
ltibia 45.6175
lfoot -19.5611 4.56522
ltoes -8.38017
141
root -1.41734 17.625 5.69447 533.735 -68.2195 -517.111
lowerback 17.969 3.13142 8.67056
upperback 5.312 5.184 -0.14873
thorax -3.4725 2.3979 -6.07598
lowerneck 9.59532 14.7201 13.2467
upperneck -6.1008 20.3508 -20.1877
head 0.180285 10.773 -8.15923
rclavicle 3.26752e-014 -1.04362e-014
rhumerus -54.2377 -25.3395 -39.7304
rradius 91.8785
rwrist -54.3312
rhand -7.45004 -27.6513
rfingers 7.12502
rthumb 18.4379 -56.7975
lclavicle 3.26752e-014 -1.04362e-014
lhumerus -80.6715 20.4315 12.5594
lradius 14.3022
lwrist -42.8193
lhand -20.9858 13.3402
lfingers 7.12502
lthumb 5.38805 43.2517
rfemur -12.2665 14.5568 17.6354
rtibia 30.8437
rfoot -24.3357 -3.66948
rtoes -22.1932
lfemur -38.0961 2.2229 -17.3552
ltibia 44.3491
lfoot -18.8933 4.72607
ltoes -7.43759
142
root -1.34674 17.7092 5.64415 533.858 -67.8936 -516.783
lowerback 17.7994 3.01168 8.61974
upperback 5.27132 5.00607 -0.255755
thorax -3.45069 2.31393 -6.12021
lowerneck 9.61987 14.8291 13.1842
upperneck -6.0621 20.4964 -20.1223
head 0.197721 10.8454 -8.11971
rclavicle 4.12478e-014 9.83984e-015
rhumerus -52.8767 -25.9352 -41.6364
rradius 91.9456
rwrist -53.5215
rhand -8.29251 -27.5696
rfingers 7.12502
rthumb 17.6274 -56.7905
lclavicle 4.12478e-014 9.83984e-015
lhumerus -76.1535 20.3577 22.6726
lradius 16.1018
lwrist -33.7091
lhand -22.2991 14.2631
lfingers 7.12502
lthumb 4.11994 44.203
rfemur -15.0583 14.3834 18.7129
rtibia 31.9975
rfoot -24.388 -2.80066
rtoes -22.6209
lfemur -37.9173 2.48367 -16.7916
ltibia 42.8363
lfoot -17.9599 4.9956
ltoes -7.53196
143
root -1.28392 17.8153 5.58905 534.529 -67.8108 -517.07
lowerback 17.63 2.89767 8.34405
upperback 5.25051 4.79518 -0.403529
thorax -3.43103 2.21461 -6.07576
lowerneck 9.32046 14.9172 13.0288
upperneck -5.85357 20.5937 -20.0025
head 0.292003 10.8746 -8.01691
rclavicle 1.34726e-013 2.15681e-014
rhumerus -51.5398 -26.716 -43.428
rradius 91.9387
rwrist -52.4006
rhand -8.98109 -27.5588
rfingers 7.12502
rthumb 16.9646 -56.8379
lclavicle 1.34726e-013 2.15681e-014
lhumerus -71.4998 19.6875 31.9467
lradius 18.5495
lwrist -25.1785
lhand -23.5423 15.2383
lfingers 7.12502
lthumb 2.91943 45.198
rfemur -18.008 14.207 19.5214
rtibia 32.6635
rfoot -25.224 -1.38461
rtoes -22.8529
lfemur -37.5582 2.71641 -16.5772
ltibia 41.1259
lfoot -16.8304 5.29643
ltoes -9.10507
144
root -1.22343 17.9287 5.52699 535.366 -68.0422 -517.634
lowerback 17.4836 2.72948 7.89059
upperback 5.22121 4.49015 -0.525771
thorax -3.46505 2.06605 -5.88968
lowerneck 8.76139 15.0342 12.8147
upperneck -5.27303 20.7424 -19.7826
head 0.525665 10.9067 -7.82997
rclavicle 6.15239e-014 -3.33958e-014
rhumerus -50.2206 -27.4267 -45.1048
rradius 91.8231
rwrist -51.065
rhand -9.48529 -27.5019
rfingers 7.12502
rthumb 16.4793 -56.822
lclavicle 6.15239e-014 -3.33958e-014
lhumerus -67.06 18.5151 39.9393
lradius 21.375
lwrist -17.899
lhand -24.9195 16.3784
lfingers 7.12502
lthumb 1.58928 46.3522
rfemur -20.8346 13.7928 20.2236
rtibia 32.8323
rfoot -25.7288 0.129775
rtoes -23.0606
lfemur -37.163 2.9989 -16.5864
ltibia 39.453
lfoot -15.4684 5.20479
ltoes -10.4348
145
root -1.15985 18.0157 5.4577 535.705 -68.6308 -517.777
lowerback 17.3338 2.40341 7.52652
upperback 5.22129 3.9953 -0.581317
thorax -3.48796 1.82438 -5.6468
lowerneck 8.15358 15.1314 12.829
upperneck -4.64942 20.8902 -19.801
head 0.831616 10.9383 -7.73407
rclavicle 1.32192e-014 -3.35946e-014
rhumerus -48.8606 -28.0645 -46.8055
rradius 91.7239
rwrist -49.8552
rhand -9.99085 -27.5339
rfingers 7.12502
rthumb 15.9925 -56.8937
lclavicle 1.32192e-014 -3.35946e-014
lhumerus -62.9852 17.1674 46.5312
lradius 24.4217
lwrist -12.0403
lhand -26.5778 17.1249
lfingers 7.12502
lthumb -0.012311 47.1047
rfemur -23.3416 13.4728 21.0455
rtibia 32.5802
rfoot -26.1316 1.58511
rtoes -22.4698
lfemur -36.9146 3.34881 -16.5596
ltibia 38.0871
lfoot -13.9206 4.62053
ltoes -11.7761
146
root -1.09468 18.0724 5.38788 535.386 -69.5623 -517.338
lowerback 17.2441 1.91105 7.39937
upperback 5.2479 3.32676 -0.596472
thorax -3.51909 1.49665 -5.46511
lowerneck 8.01371 15.1015 12.9205
upperneck -4.79692 20.8315 -19.8647
head 0.81943 10.9063 -7.76266
rclavicle -9.34288e-015 -6.55989e-015
rhumerus -47.5753 -28.697 -48.5165
rradius 91.7457
rwrist -48.8483
rhand -10.7827 -27.7769
rfingers 7.12502
rthumb 15.2298 -57.1964
lclavicle -9.34288e-015 -6.55989e-015
lhumerus -59.1846 15.7606 51.9175
lradius 27.8235
lwrist -7.12384
lhand -28.1171 17.3958
lfingers 7.12502
lthumb -1.49901 47.3703
rfemur -25.6197 13.369 21.9177
rtibia 32.1228
rfoot -26.0581 3.07006
rtoes -22.1153
lfemur -36.9147 3.66696 -16.4774
ltibia 37.2858
lfoot -12.5358 3.6908
ltoes -13.7097
147
root -1.02563 18.0983 5.32337 534.469 -70.8174 -516.309
lowerback 17.2089 1.29407 7.55528
upperback 5.23779 2.55316 -0.575854
thorax -3.61576 1.11469 -5.38843
lowerneck 8.04641 15.0314 12.9941
upperneck -5.14644 20.711 -19.8023
head 0.69412 10.8524 -7.78516
rclavicle -1.2921e-014 -1.78906e-014
rhumerus -46.5584 -29.1851 -50.0331
rradius 91.9133
rwrist -48.1124
rhand -11.7637 -28.2253
rfingers 7.12502
rthumb 14.2847 -57.7139
lclavicle -1.2921e-014 -1.78906e-014
lhumerus -55.8023 14.1655 56.443
lradius 31.8997
lwrist -2.45756
lhand -29.0506 17.3344
lfingers 7.12502
lthumb -2.40057 47.3006
rfemur -27.819 13.3098 22.7222
rtibia 31.7269
rfoot -25.3526 4.91779
rtoes -23.3852
lfemur -37.3519 3.76493 -16.3197
ltibia 37.2308
lfoot -11.3765 2.46564
ltoes -14.4948
148
root -0.949452 18.0993 5.26359 533.047 -72.4208 -514.869
lowerback 17.3223 0.564245 7.8515
upperback 5.20406 1.67144 -0.521846
thorax -3.82982 0.673977 -5.33715
lowerneck 8.05408 14.9789 13.583
upperneck -5.22305 20.6881 -20.4882
head 0.810954 10.8555 -8.06354
rclavicle -6.12257e-014 1.59028e-014
rhumerus -45.9574 -29.4307 -51.2118
rradius 92.3411
rwrist -47.6023
rhand -12.6825 -28.5846
rfingers 7.12502
rthumb 13.3993 -58.1337
lclavicle -6.12257e-014 1.59028e-014
lhumerus -52.812 12.463 60.2214
lradius 36.4726
lwrist 1.58152
lhand -29.6409 16.7833
lfingers 7.12502
lthumb -2.97066 46.7424
rfemur -29.8919 12.9454 23.4062
rtibia 31.5737
rfoot -22.3255 7.58275
rtoes -22.7104
lfemur -38.12 3.49892 -16.1585
ltibia 37.881
lfoot -10.3131 1.06586
ltoes -14.1169
149
root -0.861621 18.0652 5.20915 531.232 -74.3736 -513.306
lowerback 17.7359 -0.201664 8.21625
upperback 5.20168 0.776064 -0.457589
thorax -4.17468 0.219467 -5.30783
lowerneck 7.38349 14.9248 13.1853
upperneck -4.92874 20.5557 -19.6364
head 0.839488 10.7301 -7.70263
rclavicle 2.38542e-014 -7.95139e-016
rhumerus -46.0188 -29.5693 -51.7229
rradius 93.1544
rwrist -46.999
rhand -13.1957 -28.7201
rfingers 7.12502
rthumb 12.9045 -58.3011
lclavicle 2.38542e-014 -7.95139e-016
lhumerus -49.5975 10.6035 63.3993
lradius 41.1014
lwrist 4.40621
lhand -29.7078 15.5521
lfingers 7.12502
lthumb -3.03528 45.5102
rfemur -31.5797 12.1455 23.8029
rtibia 32.1375
rfoot -19.7188 11.4044
rtoes -16.0337
lfemur -39.0493 2.8369 -16.1458
ltibia 39.2632
lfoot -9.6653 -0.457549
ltoes -12.1518
150
root -0.767402 17.9808 5.14851 529.034 -77.2714 -511.683
lowerback 18.2099 -1.14734 8.52802
upperback 5.27714 -0.358252 -0.409443
thorax -4.51072 -0.348741 -5.19757
lowerneck 6.91763 14.7216 13.0279
upperneck -4.67631 20.2522 -19.2852
head 0.881325 10.5427 -7.55578
rclavicle 3.37934e-014 -2.98177e-014
rhumerus -46.5768 -29.7684 -51.5379
rradius 94.2224
rwrist -46.2501
rhand -13.2856 -29.2184
rfingers 7.12502
rthumb 12.8179 -58.8049
lclavicle 3.37934e-014 -2.98177e-014
lhumerus -46.1619 8.64197 66.0335
lradius 46.1111
lwrist 6.30478
lhand -28.8369 14.0487
lfingers 7.12502
lthumb -2.19419 44.0172
rfemur -32.6347 11.0064 23.6303
rtibia 33.5508
rfoot -15.9868 13.5921
rtoes 0.292207
lfemur -40.1286 1.44777 -16.5383
ltibia 41.3269
lfoot -9.47673 -2.32688
ltoes -10.0913
